<?xml version="1.0" standalone="no"?>
<!DOCTYPE svg PUBLIC "-//W3C//DTD SVG 1.1//EN" "http://www.w3.org/Graphics/SVG/1.1/DTD/svg11.dtd">
<!--Generator: Xara Designer (www.xara.com), SVG filter version: 4.0.0.1-->
<svg stroke-width="0.501" stroke-linejoin="bevel" fill-rule="evenodd" xmlns:xlink="http://www.w3.org/1999/xlink" xmlns="http://www.w3.org/2000/svg" version="1.1" overflow="visible" width="96pt" height="96pt" viewBox="0 0 96 96">
 <defs>
  <marker id="DefaultArrow2" markerUnits="strokeWidth" viewBox="0 0 1 1" markerWidth="1" markerHeight="1" overflow="visible" orient="auto">
   <!-- REF_ARROW_STRAIGHT (-2) -->
   <g transform="scale(0.0092592592)">
    <!-- 1/108 -->
    <path d="M -9 54 L -9 -54 L 117 0 z"/>
   </g>
  </marker>
  <marker id="DefaultArrow3" markerUnits="strokeWidth" viewBox="0 0 1 1" markerWidth="1" markerHeight="1" overflow="visible" orient="auto">
   <!-- REF_ARROW_ANGLED -->
   <g transform="scale(0.0092592592)">
    <path d="M -27 54 L -9 0 L -27 -54 L 135 0 z"/>
   </g>
  </marker>
  <marker id="DefaultArrow4" markerUnits="strokeWidth" viewBox="0 0 1 1" markerWidth="1" markerHeight="1" overflow="visible" orient="auto">
   <!-- REF_ARROW_ROUNDED -->
   <g transform="scale(0.0092592592)">
    <path d="M -9,0 L -9,-45 C -9,-51.708 2.808,-56.580 9,-54 L 117,-9 C 120.916,-7.369 126.000,-4.242 126,0 C 126,4.242 120.916,7.369 117,9 L 9,54 C 2.808,56.580 -9,51.708 -9,45 z"/>
   </g>
  </marker>
  <marker id="DefaultArrow5" markerUnits="strokeWidth" viewBox="0 0 1 1" markerWidth="1" markerHeight="1" overflow="visible" orient="auto">
   <!-- REF_ARROW_SPOT -->
   <g transform="scale(0.0092592592)">
    <path d="M -54, 0 C -54,29.807 -29.807,54 0,54 C 29.807,54 54,29.807 54,0 C 54,-29.807 29.807,-54 0,-54 C -29.807,-54 -54,-29.807 -54,0 z"/>
   </g>
  </marker>
  <marker id="DefaultArrow6" markerUnits="strokeWidth" viewBox="0 0 1 1" markerWidth="1" markerHeight="1" overflow="visible" orient="auto">
   <!-- REF_ARROW_DIAMOND -->
   <g transform="scale(0.0092592592)">
    <path d="M -63,0 L 0,63 L 63,0 L 0,-63 z"/>
   </g>
  </marker>
  <marker id="DefaultArrow7" markerUnits="strokeWidth" viewBox="0 0 1 1" markerWidth="1" markerHeight="1" overflow="visible" orient="auto">
   <!-- REF_ARROW_FEATHER -->
   <g transform="scale(0.0092592592)">
    <path d="M 18,-54 L 108,-54 L 63,0 L 108,54 L 18, 54 L -36,0 z"/>
   </g>
  </marker>
  <marker id="DefaultArrow8" markerUnits="strokeWidth" viewBox="0 0 1 1" markerWidth="1" markerHeight="1" overflow="visible" orient="auto">
   <!-- REF_ARROW_FEATHER2 -->
   <g transform="scale(0.0092592592)">
    <path d="M -36,0 L 18,-54 L 54,-54 L 18,-18 L 27,-18 L 63,-54 L 99,-54 L 63,-18 L 72,-18 L 108,-54 L 144,-54 L 90,0 L 144,54 L 108,54 L 72,18 L 63,18 L 99,54 L 63,54 L 27,18 L 18,18 L 54,54 L 18,54 z"/>
   </g>
  </marker>
  <marker id="DefaultArrow9" markerUnits="strokeWidth" viewBox="0 0 1 1" markerWidth="1" markerHeight="1" overflow="visible" orient="auto">
   <!-- REF_ARROW_HOLLOWDIAMOND -->
   <g transform="scale(0.0092592592)">
    <path d="M 0,45 L -45,0 L 0, -45 L 45, 0 z M 0, 63 L-63, 0 L 0, -63 L 63, 0 z"/>
   </g>
  </marker>
  <filter id="StainedFilter">
   <feBlend mode="multiply" in2="BackgroundImage" in="SourceGraphic" result="blend"/>
   <feComposite in="blend" in2="SourceAlpha" operator="in" result="comp"/>
  </filter>
  <filter id="BleachFilter">
   <feBlend mode="screen" in2="BackgroundImage" in="SourceGraphic" result="blend"/>
   <feComposite in="blend" in2="SourceAlpha" operator="in" result="comp"/>
  </filter>
  <filter id="InvertTransparencyBitmapFilter">
   <feComponentTransfer>
    <feFuncR type="gamma" amplitude="1.055" exponent=".416666666" offset="-0.055"/>
    <feFuncG type="gamma" amplitude="1.055" exponent=".416666666" offset="-0.055"/>
    <feFuncB type="gamma" amplitude="1.055" exponent=".416666666" offset="-0.055"/>
   </feComponentTransfer>
   <feComponentTransfer>
    <feFuncR type="linear" slope="-1" intercept="1"/>
    <feFuncG type="linear" slope="-1" intercept="1"/>
    <feFuncB type="linear" slope="-1" intercept="1"/>
    <feFuncA type="linear" slope="1" intercept="0"/>
   </feComponentTransfer>
   <feComponentTransfer>
    <feFuncR type="gamma" amplitude="1" exponent="2.4" offset="0"/>
    <feFuncG type="gamma" amplitude="1" exponent="2.4" offset="0"/>
    <feFuncB type="gamma" amplitude="1" exponent="2.4" offset="0"/>
   </feComponentTransfer>
  </filter>
 </defs>
 <g id="Document" fill="none" stroke="black" font-family="Times New Roman" font-size="16" transform="scale(1 -1)">
  <g id="Spread" transform="translate(0 -96)">
   <g id="Layer 1">
    <path d="M 48.668,11.301 C 73.484,11.301 93.626,8.796 93.626,5.71 C 93.626,2.624 73.484,0.119 48.668,0.119 C 23.852,0.119 3.71,2.624 3.71,5.71 C 3.71,8.796 23.852,11.301 48.668,11.301 Z" stroke-opacity="0.298039" stroke="none" stroke-linecap="round" stroke-linejoin="round" stroke-width="0.75" fill="#000000" marker-start="none" marker-end="none" stroke-miterlimit="79.8403193612775" fill-opacity="0.298039"/>
    <path d="M 73.215,48.534 C 67.911,58.723 66.194,68.725 63.293,78.855 C 63.526,81.086 64.5,89.972 61.337,90.205 C 59.528,90.338 56.016,85.125 54.768,83.52 C 53.407,84.517 50.04,84.638 47.643,84.622 C 45.443,84.607 42.476,84.517 41.114,83.52 C 39.866,85.125 36.355,90.338 34.546,90.205 C 31.383,89.972 32.357,81.086 32.59,78.855 C 29.689,68.725 27.972,58.723 22.668,48.534 L 73.215,48.534 Z" stroke-width="2.25" stroke="#44546b" fill="#7086a3" stroke-linecap="round" stroke-linejoin="round" marker-start="none" marker-end="none" stroke-miterlimit="79.8403193612775"/>
    <g id="Group" stroke-linejoin="miter" stroke="none" stroke-width="0.75" stroke-miterlimit="79.8403193612775">
     <path d="M 12.774,6.978 L 12.774,48.401 L 1.205,59.971 C -0.088,61.264 -0.088,63.361 1.205,64.654 L 2.213,65.662 C 3.506,66.955 5.603,66.955 6.896,65.662 L 18.024,54.533 L 78.373,54.533 L 89.502,65.662 C 90.795,66.955 92.892,66.955 94.185,65.662 L 95.193,64.654 C 96.486,63.361 96.486,61.264 95.193,59.971 L 84.179,48.956 L 84.179,6.978 C 84.179,4.475 82.148,2.442 79.644,2.442 L 17.309,2.442 C 14.804,2.442 12.774,4.475 12.774,6.978 Z" fill="#855a31" marker-start="none" marker-end="none"/>
     <g id="Group_1" stroke-linecap="round" fill="#af8e5a">
      <path d="M 14.968,49.997 L 14.968,6.978 C 14.968,5.686 16.017,4.636 17.309,4.636 L 79.644,4.636 C 80.936,4.636 81.985,5.686 81.985,6.978 L 81.985,49.997 C 81.985,51.289 80.936,52.339 79.644,52.339 L 17.309,52.339 C 16.017,52.339 14.968,51.289 14.968,49.997 Z" marker-start="none" marker-end="none"/>
      <path d="M 2.757,61.523 L 25.905,38.373 C 26.341,37.937 27.049,37.937 27.485,38.373 L 28.493,39.382 C 28.929,39.818 28.929,40.526 28.493,40.961 L 5.345,64.111 C 4.909,64.547 4.201,64.547 3.765,64.111 L 2.757,63.103 C 2.321,62.667 2.321,61.959 2.757,61.523 Z" marker-start="none" marker-end="none"/>
      <path d="M 93.642,61.523 L 70.494,38.373 C 70.058,37.937 69.35,37.937 68.914,38.373 L 67.906,39.382 C 67.47,39.818 67.47,40.526 67.906,40.961 L 91.054,64.111 C 91.49,64.547 92.198,64.547 92.634,64.111 L 93.642,63.103 C 94.078,62.667 94.078,61.959 93.642,61.523 Z" marker-start="none" marker-end="none"/>
     </g>
    </g>
    <path d="M 30.209,74.196 L 30.209,68.497 L 65.308,68.497 L 65.308,74.196 L 30.209,74.196 Z" fill="#44546b" stroke="none" stroke-linecap="round" stroke-width="0.75" stroke-linejoin="miter" marker-start="none" marker-end="none" stroke-miterlimit="79.8403193612775"/>
    <path d="M 38.74,76.082 C 41.75,76.082 44.194,73.638 44.194,70.628 C 44.194,67.618 41.75,65.174 38.74,65.174 C 35.73,65.174 33.286,67.618 33.286,70.628 C 33.286,73.638 35.73,76.082 38.74,76.082 Z" stroke="#44546b" fill="#ffffff" stroke-width="1.5" stroke-linecap="round" stroke-linejoin="round" marker-start="none" marker-end="none" stroke-miterlimit="79.8403193612775"/>
    <path d="M 56.428,76.083 C 59.438,76.083 61.882,73.639 61.882,70.629 C 61.882,67.619 59.438,65.175 56.428,65.175 C 53.418,65.175 50.974,67.619 50.974,70.629 C 50.974,73.639 53.418,76.083 56.428,76.083 Z" stroke="#44546b" fill="#ffffff" stroke-width="1.5" stroke-linecap="round" stroke-linejoin="round" marker-start="none" marker-end="none" stroke-miterlimit="79.8403193612775"/>
    <g id="Group_2" stroke-linejoin="round" stroke-linecap="round" stroke="none" stroke-width="1.5" fill="#cfc1ab" stroke-miterlimit="79.8403193612775">
     <path d="M 33.961,70.885 C 33.961,73.522 36.103,75.664 38.74,75.664 C 41.377,75.664 43.519,73.522 43.519,70.885 C 43.519,70.489 43.471,70.106 43.381,69.739 L 34.099,69.739 C 34.008,70.106 33.961,70.489 33.961,70.885 Z" marker-start="none" marker-end="none"/>
     <path d="M 51.7,70.905 C 51.7,73.514 53.819,75.633 56.428,75.633 C 59.037,75.633 61.156,73.514 61.156,70.905 C 61.156,70.514 61.108,70.134 61.018,69.771 L 51.837,69.771 C 51.747,70.134 51.7,70.514 51.7,70.905 Z" marker-start="none" marker-end="none"/>
    </g>
    <path d="M 38.542,73.072 C 39.747,73.072 40.725,72.094 40.725,70.889 C 40.725,69.684 39.747,68.706 38.542,68.706 C 37.337,68.706 36.359,69.684 36.359,70.889 C 36.359,72.094 37.337,73.072 38.542,73.072 Z" stroke="none" stroke-linecap="round" stroke-linejoin="round" stroke-width="0.75" fill="#000000" marker-start="none" marker-end="none" stroke-miterlimit="79.8403193612775"/>
    <path d="M 56.422,73.072 C 57.627,73.072 58.605,72.094 58.605,70.889 C 58.605,69.684 57.627,68.706 56.422,68.706 C 55.217,68.706 54.239,69.684 54.239,70.889 C 54.239,72.094 55.217,73.072 56.422,73.072 Z" stroke="none" stroke-linecap="round" stroke-linejoin="round" stroke-width="0.75" fill="#000000" marker-start="none" marker-end="none" stroke-miterlimit="79.8403193612775"/>
    <path d="M 22.637,63.547 C 22.558,63.65 22.54,63.926 22.559,64.072 C 22.63,64.603 23.927,66.455 24.275,67.147 C 26.111,70.791 25.72,74.559 26.538,78.472 C 27.92,84.737 30.363,85.105 31.452,88.147 C 31.739,89.462 33.676,94.607 35.275,94.814 C 37.15,95.056 40.186,90.917 40.423,89.722 C 45.586,90.813 50.493,90.62 55.259,89.722 C 55.496,90.917 58.532,95.056 60.407,94.814 C 62.006,94.607 63.943,89.462 64.23,88.147 C 65.319,85.105 67.07,84.737 69.144,78.472 C 69.962,74.559 69.571,70.791 71.407,67.147 C 71.755,66.455 73.052,64.603 73.123,64.072 C 73.142,63.926 73.124,63.65 73.045,63.547 C 71.953,62.111 69.878,62.234 68.238,61.897 L 65.407,72.082 L 30.275,72.082 L 27.559,61.897 C 25.919,62.234 23.729,62.111 22.637,63.547 Z" stroke-width="2.25" stroke="#005446" fill="#007c57" stroke-linejoin="round" stroke-linecap="round" marker-start="none" marker-end="none" stroke-miterlimit="79.8403193612775"/>
    <path d="M 44.177,65.209 C 44.283,64.296 44.509,63.98 45.024,63.331 C 47.083,60.738 51.169,62.22 51.302,65.012 C 51.378,66.608 45.529,66.356 44.828,65.881 L 44.177,65.209 Z" fill="#44546b" stroke-linejoin="round" stroke-linecap="round" stroke="none" stroke-width="0.75" marker-start="none" marker-end="none" stroke-miterlimit="79.8403193612775"/>
    <path d="M 37.559,61.747 L 42.659,63.322" fill="none" stroke="#44546b" stroke-width="1.125" stroke-linecap="round" stroke-linejoin="round" stroke-miterlimit="79.8403193612775"/>
    <path d="M 38.234,58.597 L 43.484,61.447" fill="none" stroke="#44546b" stroke-width="1.125" stroke-linecap="round" stroke-linejoin="round" stroke-miterlimit="79.8403193612775"/>
    <path d="M 58.203,61.747 L 53.103,63.322" fill="none" stroke="#44546b" stroke-width="1.125" stroke-linecap="round" stroke-linejoin="round" stroke-miterlimit="79.8403193612775"/>
    <path d="M 57.528,58.597 L 52.278,61.447" fill="none" stroke="#44546b" stroke-width="1.125" stroke-linecap="round" stroke-linejoin="round" stroke-miterlimit="79.8403193612775"/>
    <path d="M 37.345,37.367 L 37.345,35.34 C 37.345,33.636 38.728,32.253 40.432,32.253 L 56.521,32.253 C 58.225,32.253 59.608,33.636 59.608,35.34 L 59.608,37.367 C 59.608,39.071 58.225,40.454 56.521,40.454 L 40.432,40.454 C 38.728,40.454 37.345,39.071 37.345,37.367 Z" fill="#e7c898" stroke-linejoin="miter" stroke-linecap="round" stroke="none" stroke-width="0.75" marker-start="none" marker-end="none" stroke-miterlimit="79.8403193612775"/>
    <path d="M 38.965,36.791 L 38.965,36.062 C 38.965,34.771 40.014,33.721 41.306,33.721 L 55.647,33.721 C 56.939,33.721 57.988,34.771 57.988,36.062 L 57.988,36.791 C 57.988,38.082 56.939,39.132 55.647,39.132 L 41.306,39.132 C 40.014,39.132 38.965,38.082 38.965,36.791 Z" fill="#44546b" stroke-linejoin="miter" stroke-linecap="round" stroke="none" stroke-width="0.75" marker-start="none" marker-end="none" stroke-miterlimit="79.8403193612775"/>
    <path d="M 91.136,63.52 L 79.551,52.072 L 16.727,52.072 L 4.873,63.786" fill="none" stroke-width="1.5" stroke="#e7c898" stroke-linecap="round" stroke-linejoin="round" stroke-miterlimit="79.8403193612775"/>
    <path d="M 46.82,88.787 C 53.196,88.787 58.37,85.777 58.37,82.069 C 58.37,78.361 53.196,78.141 46.82,78.141 C 40.444,78.141 35.27,78.361 35.27,82.069 C 35.27,85.777 40.444,88.787 46.82,88.787 Z" fill="#4da374" stroke="none" stroke-linecap="round" stroke-linejoin="round" stroke-width="0.75" marker-start="none" marker-end="none" stroke-miterlimit="79.8403193612775"/>
    <path d="M 71.084,64.597 C 69.91,66.679 68.984,69.172 68.384,71.722 C 68.065,73.078 67.542,76.088 67.259,77.347 C 65.759,84.022 62.534,85.897 60.884,92.872" fill="none" stroke-width="1.5" stroke="#4da374" stroke-linecap="round" stroke-linejoin="round" stroke-miterlimit="79.8403193612775"/>
    <path d="M 24.425,64.595 C 25.599,66.677 26.525,69.17 27.125,71.72 C 27.444,73.076 28.048,76.07 28.25,77.345 C 29.309,84.022 32.975,85.895 34.625,92.87" fill="none" stroke-width="1.5" stroke="#4da374" stroke-linecap="round" stroke-linejoin="round" stroke-miterlimit="79.8403193612775"/>
    <path d="M 32.759,73.297 L 63.285,73.297" fill="none" stroke-width="1.5" stroke="#4da374" stroke-linecap="round" stroke-linejoin="round" stroke-miterlimit="79.8403193612775"/>
   </g>
  </g>
 </g>
</svg>
